<mxfile host="app.diagrams.net" modified="2024-07-17T15:02:32.692Z" agent="Mozilla/5.0 (Windows NT 10.0; Win64; x64) AppleWebKit/537.36 (KHTML, like Gecko) Chrome/126.0.0.0 Safari/537.36" etag="X_iuBo4dP4yzddmzTO5W" version="24.6.5" type="github">
  <diagram id="prtHgNgQTEPvFCAcTncT" name="Page-1">
    <mxGraphModel dx="1195" dy="622" grid="1" gridSize="10" guides="1" tooltips="1" connect="1" arrows="1" fold="1" page="1" pageScale="1" pageWidth="827" pageHeight="1169" math="0" shadow="0">
      <root>
        <mxCell id="0" />
        <mxCell id="1" parent="0" />
        <mxCell id="Nfb5iwJj91xf9IkQgzl1-28" style="edgeStyle=orthogonalEdgeStyle;rounded=0;orthogonalLoop=1;jettySize=auto;html=1;entryX=0.5;entryY=0;entryDx=0;entryDy=0;" edge="1" parent="1" source="Bn__YEzeCOPY6sP5UIs9-2" target="Nfb5iwJj91xf9IkQgzl1-22">
          <mxGeometry relative="1" as="geometry" />
        </mxCell>
        <mxCell id="Bn__YEzeCOPY6sP5UIs9-2" value="Администратор" style="rounded=0;whiteSpace=wrap;html=1;" parent="1" vertex="1">
          <mxGeometry x="129" y="80" width="96" height="40" as="geometry" />
        </mxCell>
        <mxCell id="Nfb5iwJj91xf9IkQgzl1-63" style="edgeStyle=orthogonalEdgeStyle;rounded=0;orthogonalLoop=1;jettySize=auto;html=1;entryX=0.5;entryY=0;entryDx=0;entryDy=0;" edge="1" parent="1" source="Bn__YEzeCOPY6sP5UIs9-5" target="dNxyNK7c78bLwvsdeMH5-36">
          <mxGeometry relative="1" as="geometry" />
        </mxCell>
        <mxCell id="Bn__YEzeCOPY6sP5UIs9-5" value="Региональный оператор" style="rounded=0;whiteSpace=wrap;html=1;" parent="1" vertex="1">
          <mxGeometry x="880" y="160" width="120" height="40" as="geometry" />
        </mxCell>
        <mxCell id="Bn__YEzeCOPY6sP5UIs9-6" value="РОИВ" style="rounded=0;whiteSpace=wrap;html=1;" parent="1" vertex="1">
          <mxGeometry x="640" y="70" width="66" height="40" as="geometry" />
        </mxCell>
        <mxCell id="Nfb5iwJj91xf9IkQgzl1-64" style="edgeStyle=orthogonalEdgeStyle;rounded=0;orthogonalLoop=1;jettySize=auto;html=1;entryX=0;entryY=0;entryDx=0;entryDy=0;" edge="1" parent="1" source="Bn__YEzeCOPY6sP5UIs9-7" target="dNxyNK7c78bLwvsdeMH5-36">
          <mxGeometry relative="1" as="geometry" />
        </mxCell>
        <mxCell id="Bn__YEzeCOPY6sP5UIs9-7" value="Транспортировщик" style="rounded=0;whiteSpace=wrap;html=1;fontSize=10;" parent="1" vertex="1">
          <mxGeometry x="880" y="210" width="120" height="40" as="geometry" />
        </mxCell>
        <mxCell id="Nfb5iwJj91xf9IkQgzl1-66" style="edgeStyle=orthogonalEdgeStyle;rounded=0;orthogonalLoop=1;jettySize=auto;html=1;entryX=0;entryY=1;entryDx=0;entryDy=0;" edge="1" parent="1" source="Bn__YEzeCOPY6sP5UIs9-8" target="dNxyNK7c78bLwvsdeMH5-36">
          <mxGeometry relative="1" as="geometry" />
        </mxCell>
        <mxCell id="Bn__YEzeCOPY6sP5UIs9-8" value="Оператор объекта обращения" style="rounded=0;whiteSpace=wrap;html=1;fontSize=11;" parent="1" vertex="1">
          <mxGeometry x="880" y="310" width="120" height="40" as="geometry" />
        </mxCell>
        <mxCell id="Nfb5iwJj91xf9IkQgzl1-67" style="edgeStyle=orthogonalEdgeStyle;rounded=0;orthogonalLoop=1;jettySize=auto;html=1;entryX=0.5;entryY=1;entryDx=0;entryDy=0;" edge="1" parent="1" source="Bn__YEzeCOPY6sP5UIs9-9" target="dNxyNK7c78bLwvsdeMH5-36">
          <mxGeometry relative="1" as="geometry" />
        </mxCell>
        <mxCell id="Bn__YEzeCOPY6sP5UIs9-9" value="Отходо-&lt;div style=&quot;font-size: 12px;&quot;&gt;образователь&lt;/div&gt;" style="rounded=0;whiteSpace=wrap;html=1;fontSize=12;" parent="1" vertex="1">
          <mxGeometry x="880" y="360" width="120" height="40" as="geometry" />
        </mxCell>
        <mxCell id="Bn__YEzeCOPY6sP5UIs9-10" value="ОМСУ" style="rounded=0;whiteSpace=wrap;html=1;fontSize=12;" parent="1" vertex="1">
          <mxGeometry x="720" y="70" width="66" height="40" as="geometry" />
        </mxCell>
        <mxCell id="dNxyNK7c78bLwvsdeMH5-23" value="" style="ellipse;whiteSpace=wrap;html=1;" parent="1" vertex="1">
          <mxGeometry x="40" y="10" width="40" height="40" as="geometry" />
        </mxCell>
        <mxCell id="dNxyNK7c78bLwvsdeMH5-36" value="" style="rhombus;whiteSpace=wrap;html=1;fontFamily=Helvetica;fontSize=12;fontColor=#000000;align=center;" parent="1" vertex="1">
          <mxGeometry x="1130" y="260" width="40" height="40" as="geometry" />
        </mxCell>
        <mxCell id="dNxyNK7c78bLwvsdeMH5-19" value="Pool" style="swimlane;html=1;childLayout=stackLayout;resizeParent=1;resizeParentMax=0;horizontal=0;startSize=20;horizontalStack=0;" parent="1" vertex="1">
          <mxGeometry x="4" y="240" width="820" height="480" as="geometry" />
        </mxCell>
        <mxCell id="dNxyNK7c78bLwvsdeMH5-20" value="Роль" style="swimlane;html=1;startSize=20;horizontal=0;" parent="dNxyNK7c78bLwvsdeMH5-19" vertex="1">
          <mxGeometry x="20" width="800" height="140" as="geometry" />
        </mxCell>
        <mxCell id="Nfb5iwJj91xf9IkQgzl1-22" value="admin" style="rounded=1;whiteSpace=wrap;html=1;" vertex="1" parent="dNxyNK7c78bLwvsdeMH5-20">
          <mxGeometry x="133" y="50" width="40" height="20" as="geometry" />
        </mxCell>
        <mxCell id="Nfb5iwJj91xf9IkQgzl1-32" value="АДМИНСТРАТОР (reg_operator_admin)" style="rounded=1;whiteSpace=wrap;html=1;" vertex="1" parent="dNxyNK7c78bLwvsdeMH5-20">
          <mxGeometry x="256" y="10" width="228" height="20" as="geometry" />
        </mxCell>
        <mxCell id="Nfb5iwJj91xf9IkQgzl1-35" value="НАБЛЮДАТЕЛЬ (reg_operator_only_view)" style="rounded=1;whiteSpace=wrap;html=1;" vertex="1" parent="dNxyNK7c78bLwvsdeMH5-20">
          <mxGeometry x="256" y="40" width="234" height="20" as="geometry" />
        </mxCell>
        <mxCell id="Nfb5iwJj91xf9IkQgzl1-36" value="РУКОВОДИТЕЛЬ ОТДЕЛА (reg_operator_only_view)" style="rounded=1;whiteSpace=wrap;html=1;" vertex="1" parent="dNxyNK7c78bLwvsdeMH5-20">
          <mxGeometry x="256" y="70" width="294" height="20" as="geometry" />
        </mxCell>
        <mxCell id="Nfb5iwJj91xf9IkQgzl1-37" value="СОТРУДНИК ОТДЕЛА (reg_operator_only_view)" style="rounded=1;whiteSpace=wrap;html=1;" vertex="1" parent="dNxyNK7c78bLwvsdeMH5-20">
          <mxGeometry x="256" y="100" width="274" height="20" as="geometry" />
        </mxCell>
        <mxCell id="dNxyNK7c78bLwvsdeMH5-21" value="Доступные разделы меню" style="swimlane;html=1;startSize=20;horizontal=0;" parent="dNxyNK7c78bLwvsdeMH5-19" vertex="1">
          <mxGeometry x="20" y="140" width="800" height="230" as="geometry">
            <mxRectangle x="20" y="140" width="800" height="30" as="alternateBounds" />
          </mxGeometry>
        </mxCell>
        <mxCell id="Nfb5iwJj91xf9IkQgzl1-24" value="Разделы меню" style="swimlane;fontStyle=0;childLayout=stackLayout;horizontal=1;startSize=26;fillColor=none;horizontalStack=0;resizeParent=1;resizeParentMax=0;resizeLast=0;collapsible=1;marginBottom=0;html=1;" vertex="1" parent="dNxyNK7c78bLwvsdeMH5-21">
          <mxGeometry x="66" y="20" width="174" height="180" as="geometry">
            <mxRectangle x="76" y="20" width="60" height="30" as="alternateBounds" />
          </mxGeometry>
        </mxCell>
        <mxCell id="Nfb5iwJj91xf9IkQgzl1-27" value="&lt;ul style=&quot;margin-top: 2px; margin-bottom: 2px; padding-left: 12px;&quot;&gt;&lt;li&gt;&lt;span style=&quot;&quot;&gt;Объекты инфраструктуры&lt;/span&gt;&lt;/li&gt;&lt;li&gt;&lt;span style=&quot;&quot;&gt;Контрагенты&lt;/span&gt;&lt;/li&gt;&lt;li&gt;&lt;span style=&quot;&quot;&gt;Договоры и платежи&lt;/span&gt;&lt;/li&gt;&lt;li&gt;Расчеты с ФЛ&lt;/li&gt;&lt;li&gt;Инциденты&lt;/li&gt;&lt;li&gt;Логистика&lt;/li&gt;&lt;li&gt;Линейный отдел&lt;/li&gt;&lt;li&gt;Терминал диспетчера&lt;/li&gt;&lt;li&gt;НСИ&lt;/li&gt;&lt;li&gt;Отчеты&lt;/li&gt;&lt;/ul&gt;" style="text;strokeColor=none;fillColor=none;align=left;verticalAlign=top;spacingLeft=4;spacingRight=4;overflow=hidden;rotatable=0;points=[[0,0.5],[1,0.5]];portConstraint=eastwest;whiteSpace=wrap;html=1;" vertex="1" parent="Nfb5iwJj91xf9IkQgzl1-24">
          <mxGeometry y="26" width="174" height="154" as="geometry" />
        </mxCell>
        <mxCell id="Nfb5iwJj91xf9IkQgzl1-41" value="Отдел" style="rounded=0;whiteSpace=wrap;html=1;fontSize=12;" vertex="1" parent="dNxyNK7c78bLwvsdeMH5-21">
          <mxGeometry x="336" y="46" width="66" height="24" as="geometry" />
        </mxCell>
        <mxCell id="dNxyNK7c78bLwvsdeMH5-22" value="Права на CRUD" style="swimlane;html=1;startSize=20;horizontal=0;" parent="dNxyNK7c78bLwvsdeMH5-19" vertex="1">
          <mxGeometry x="20" y="370" width="800" height="110" as="geometry" />
        </mxCell>
        <mxCell id="Nfb5iwJj91xf9IkQgzl1-39" value="Полный доступ к АПРО и к административной панели проекта" style="rounded=0;whiteSpace=wrap;html=1;" vertex="1" parent="dNxyNK7c78bLwvsdeMH5-22">
          <mxGeometry x="96" y="20" width="114" height="70" as="geometry" />
        </mxCell>
        <mxCell id="Nfb5iwJj91xf9IkQgzl1-40" style="edgeStyle=orthogonalEdgeStyle;rounded=0;orthogonalLoop=1;jettySize=auto;html=1;entryX=0.5;entryY=0;entryDx=0;entryDy=0;" edge="1" parent="dNxyNK7c78bLwvsdeMH5-19" source="Nfb5iwJj91xf9IkQgzl1-24" target="Nfb5iwJj91xf9IkQgzl1-39">
          <mxGeometry relative="1" as="geometry" />
        </mxCell>
        <mxCell id="Nfb5iwJj91xf9IkQgzl1-43" style="edgeStyle=orthogonalEdgeStyle;rounded=0;orthogonalLoop=1;jettySize=auto;html=1;entryX=0.5;entryY=0;entryDx=0;entryDy=0;" edge="1" parent="dNxyNK7c78bLwvsdeMH5-19" source="Nfb5iwJj91xf9IkQgzl1-22" target="Nfb5iwJj91xf9IkQgzl1-24">
          <mxGeometry relative="1" as="geometry" />
        </mxCell>
        <mxCell id="Nfb5iwJj91xf9IkQgzl1-65" style="edgeStyle=orthogonalEdgeStyle;rounded=0;orthogonalLoop=1;jettySize=auto;html=1;entryX=0;entryY=0.5;entryDx=0;entryDy=0;" edge="1" parent="1" source="Nfb5iwJj91xf9IkQgzl1-10" target="dNxyNK7c78bLwvsdeMH5-36">
          <mxGeometry relative="1" as="geometry" />
        </mxCell>
        <mxCell id="Nfb5iwJj91xf9IkQgzl1-10" value="Региональный оператор + Транспортировщик" style="rounded=0;whiteSpace=wrap;html=1;fontSize=11;" vertex="1" parent="1">
          <mxGeometry x="880" y="260" width="120" height="40" as="geometry" />
        </mxCell>
        <mxCell id="Nfb5iwJj91xf9IkQgzl1-30" value="Разделы меню" style="swimlane;fontStyle=0;childLayout=stackLayout;horizontal=1;startSize=26;fillColor=none;horizontalStack=0;resizeParent=1;resizeParentMax=0;resizeLast=0;collapsible=1;marginBottom=0;html=1;" vertex="1" parent="1">
          <mxGeometry x="390" y="760" width="174" height="160" as="geometry">
            <mxRectangle x="76" y="20" width="60" height="30" as="alternateBounds" />
          </mxGeometry>
        </mxCell>
        <mxCell id="Nfb5iwJj91xf9IkQgzl1-31" value="&lt;ul style=&quot;margin-top: 2px; margin-bottom: 2px; padding-left: 12px;&quot;&gt;&lt;li&gt;&lt;span style=&quot;&quot;&gt;Объекты инфраструктуры&lt;/span&gt;&lt;/li&gt;&lt;li&gt;&lt;span style=&quot;&quot;&gt;Контрагенты&lt;/span&gt;&lt;/li&gt;&lt;li&gt;&lt;span style=&quot;&quot;&gt;Договоры и платежи&lt;/span&gt;&lt;/li&gt;&lt;li&gt;Инциденты&lt;/li&gt;&lt;li&gt;Логистика&lt;/li&gt;&lt;li&gt;Линейный отдел&lt;/li&gt;&lt;li&gt;Терминал диспетчера&lt;/li&gt;&lt;li&gt;НСИ&lt;/li&gt;&lt;/ul&gt;" style="text;strokeColor=none;fillColor=none;align=left;verticalAlign=top;spacingLeft=4;spacingRight=4;overflow=hidden;rotatable=0;points=[[0,0.5],[1,0.5]];portConstraint=eastwest;whiteSpace=wrap;html=1;" vertex="1" parent="Nfb5iwJj91xf9IkQgzl1-30">
          <mxGeometry y="26" width="174" height="134" as="geometry" />
        </mxCell>
        <mxCell id="Nfb5iwJj91xf9IkQgzl1-44" value="ОТДЕЛ" style="swimlane;fontStyle=0;childLayout=stackLayout;horizontal=1;startSize=26;fillColor=none;horizontalStack=0;resizeParent=1;resizeParentMax=0;resizeLast=0;collapsible=1;marginBottom=0;html=1;" vertex="1" parent="1">
          <mxGeometry x="1210" y="212" width="180" height="130" as="geometry">
            <mxRectangle x="76" y="20" width="60" height="30" as="alternateBounds" />
          </mxGeometry>
        </mxCell>
        <mxCell id="Nfb5iwJj91xf9IkQgzl1-45" value="&lt;ul style=&quot;margin-top: 2px; margin-bottom: 2px; padding-left: 12px;&quot;&gt;&lt;li&gt;все отделы;&lt;/li&gt;&lt;li&gt;Линейный отдел;&lt;/li&gt;&lt;li&gt;&lt;span style=&quot;background-color: initial;&quot;&gt;Call-центр;&lt;/span&gt;&lt;br&gt;&lt;/li&gt;&lt;li&gt;Договорной отдел;&lt;/li&gt;&lt;li&gt;Логистический отдел;&lt;/li&gt;&lt;li&gt;нет отдела.&lt;/li&gt;&lt;/ul&gt;" style="text;strokeColor=none;fillColor=none;align=left;verticalAlign=top;spacingLeft=4;spacingRight=4;overflow=hidden;rotatable=0;points=[[0,0.5],[1,0.5]];portConstraint=eastwest;whiteSpace=wrap;html=1;" vertex="1" parent="Nfb5iwJj91xf9IkQgzl1-44">
          <mxGeometry y="26" width="180" height="104" as="geometry" />
        </mxCell>
        <mxCell id="Nfb5iwJj91xf9IkQgzl1-62" style="edgeStyle=orthogonalEdgeStyle;rounded=0;orthogonalLoop=1;jettySize=auto;html=1;entryX=0.005;entryY=0.404;entryDx=0;entryDy=0;entryPerimeter=0;" edge="1" parent="1" source="dNxyNK7c78bLwvsdeMH5-36" target="Nfb5iwJj91xf9IkQgzl1-45">
          <mxGeometry relative="1" as="geometry" />
        </mxCell>
      </root>
    </mxGraphModel>
  </diagram>
</mxfile>
